<mxfile host="app.diagrams.net" modified="2021-05-18T10:09:54.092Z" agent="5.0 (Macintosh; Intel Mac OS X 10_15_7) AppleWebKit/537.36 (KHTML, like Gecko) Chrome/90.0.4430.212 Safari/537.36" etag="L3WOxn8u-LYKiJEAXpLS" version="14.6.12" type="github">
  <diagram id="UyZ9Xo_nCdIvpjkZKFdj" name="第 1 页">
    <mxGraphModel dx="1127" dy="771" grid="1" gridSize="10" guides="1" tooltips="1" connect="1" arrows="1" fold="1" page="1" pageScale="1" pageWidth="827" pageHeight="1169" math="0" shadow="0">
      <root>
        <mxCell id="0" />
        <mxCell id="1" parent="0" />
        <mxCell id="NeJHOYMAFxxggkwu5jM7-1" value="" style="rounded=0;whiteSpace=wrap;html=1;fillColor=#b0e3e6;strokeColor=#0e8088;dashed=1;" vertex="1" parent="1">
          <mxGeometry x="110" y="578.5" width="580" height="131.5" as="geometry" />
        </mxCell>
        <mxCell id="NeJHOYMAFxxggkwu5jM7-2" value="" style="rounded=0;whiteSpace=wrap;html=1;dashed=1;fillColor=#d5e8d4;strokeColor=#82b366;" vertex="1" parent="1">
          <mxGeometry x="110" y="290" width="140" height="270" as="geometry" />
        </mxCell>
        <mxCell id="NeJHOYMAFxxggkwu5jM7-3" value="" style="rounded=0;whiteSpace=wrap;html=1;dashed=1;fillColor=#ffe6cc;strokeColor=#d79b00;" vertex="1" parent="1">
          <mxGeometry x="550" y="290" width="140" height="270" as="geometry" />
        </mxCell>
        <mxCell id="NeJHOYMAFxxggkwu5jM7-4" value="RocketMQ" style="rounded=0;whiteSpace=wrap;html=1;" vertex="1" parent="1">
          <mxGeometry x="560" y="415" width="120" height="60" as="geometry" />
        </mxCell>
        <mxCell id="NeJHOYMAFxxggkwu5jM7-5" value="ElasticSearch" style="rounded=0;whiteSpace=wrap;html=1;" vertex="1" parent="1">
          <mxGeometry x="560" y="490" width="120" height="60" as="geometry" />
        </mxCell>
        <mxCell id="NeJHOYMAFxxggkwu5jM7-6" value="" style="rounded=0;whiteSpace=wrap;html=1;fillColor=#dae8fc;" vertex="1" parent="1">
          <mxGeometry x="110" y="200" width="580" height="70" as="geometry" />
        </mxCell>
        <mxCell id="NeJHOYMAFxxggkwu5jM7-7" value="MySql" style="shape=cylinder3;whiteSpace=wrap;html=1;boundedLbl=1;backgroundOutline=1;size=15;" vertex="1" parent="1">
          <mxGeometry x="120" y="610" width="60" height="80" as="geometry" />
        </mxCell>
        <mxCell id="NeJHOYMAFxxggkwu5jM7-8" value="Redis" style="shape=cylinder3;whiteSpace=wrap;html=1;boundedLbl=1;backgroundOutline=1;size=15;" vertex="1" parent="1">
          <mxGeometry x="444" y="610" width="60" height="80" as="geometry" />
        </mxCell>
        <mxCell id="NeJHOYMAFxxggkwu5jM7-9" value="..." style="shape=cylinder3;whiteSpace=wrap;html=1;boundedLbl=1;backgroundOutline=1;size=15;" vertex="1" parent="1">
          <mxGeometry x="200" y="610" width="60" height="80" as="geometry" />
        </mxCell>
        <mxCell id="NeJHOYMAFxxggkwu5jM7-10" value="..." style="shape=cylinder3;whiteSpace=wrap;html=1;boundedLbl=1;backgroundOutline=1;size=15;" vertex="1" parent="1">
          <mxGeometry x="600" y="610" width="60" height="80" as="geometry" />
        </mxCell>
        <mxCell id="NeJHOYMAFxxggkwu5jM7-11" value="..." style="shape=cylinder3;whiteSpace=wrap;html=1;boundedLbl=1;backgroundOutline=1;size=15;" vertex="1" parent="1">
          <mxGeometry x="284" y="610" width="60" height="80" as="geometry" />
        </mxCell>
        <mxCell id="NeJHOYMAFxxggkwu5jM7-12" value="..." style="shape=cylinder3;whiteSpace=wrap;html=1;boundedLbl=1;backgroundOutline=1;size=15;" vertex="1" parent="1">
          <mxGeometry x="520" y="610" width="60" height="80" as="geometry" />
        </mxCell>
        <mxCell id="NeJHOYMAFxxggkwu5jM7-13" value="" style="rounded=0;whiteSpace=wrap;html=1;fillColor=#f9f7ed;strokeColor=#36393d;" vertex="1" parent="1">
          <mxGeometry x="110" y="120" width="580" height="70" as="geometry" />
        </mxCell>
        <mxCell id="NeJHOYMAFxxggkwu5jM7-14" value="中间件" style="text;html=1;align=center;verticalAlign=middle;resizable=0;points=[];autosize=1;strokeColor=none;" vertex="1" parent="1">
          <mxGeometry x="595" y="300" width="50" height="20" as="geometry" />
        </mxCell>
        <mxCell id="NeJHOYMAFxxggkwu5jM7-15" value="" style="rounded=0;whiteSpace=wrap;html=1;dashed=1;fillColor=#fff2cc;strokeColor=#d6b656;" vertex="1" parent="1">
          <mxGeometry x="260" y="290" width="280" height="190" as="geometry" />
        </mxCell>
        <mxCell id="NeJHOYMAFxxggkwu5jM7-16" value="服务1" style="rounded=0;whiteSpace=wrap;html=1;" vertex="1" parent="1">
          <mxGeometry x="270" y="335" width="120" height="60" as="geometry" />
        </mxCell>
        <mxCell id="NeJHOYMAFxxggkwu5jM7-17" value="服务2" style="rounded=0;whiteSpace=wrap;html=1;" vertex="1" parent="1">
          <mxGeometry x="404" y="335" width="120" height="60" as="geometry" />
        </mxCell>
        <mxCell id="NeJHOYMAFxxggkwu5jM7-18" value="服务4" style="rounded=0;whiteSpace=wrap;html=1;" vertex="1" parent="1">
          <mxGeometry x="404" y="410" width="120" height="60" as="geometry" />
        </mxCell>
        <mxCell id="NeJHOYMAFxxggkwu5jM7-19" value="服务2" style="rounded=0;whiteSpace=wrap;html=1;" vertex="1" parent="1">
          <mxGeometry x="270" y="410" width="120" height="60" as="geometry" />
        </mxCell>
        <mxCell id="NeJHOYMAFxxggkwu5jM7-20" value="业务集群" style="text;html=1;align=center;verticalAlign=middle;resizable=0;points=[];autosize=1;strokeColor=none;" vertex="1" parent="1">
          <mxGeometry x="370" y="300" width="60" height="20" as="geometry" />
        </mxCell>
        <mxCell id="NeJHOYMAFxxggkwu5jM7-21" value="Histrix" style="rounded=0;whiteSpace=wrap;html=1;" vertex="1" parent="1">
          <mxGeometry x="120" y="490" width="120" height="60" as="geometry" />
        </mxCell>
        <mxCell id="NeJHOYMAFxxggkwu5jM7-22" value="Ribbon" style="rounded=0;whiteSpace=wrap;html=1;" vertex="1" parent="1">
          <mxGeometry x="120" y="410" width="120" height="60" as="geometry" />
        </mxCell>
        <mxCell id="NeJHOYMAFxxggkwu5jM7-23" value="核心组件" style="text;html=1;align=center;verticalAlign=middle;resizable=0;points=[];autosize=1;strokeColor=none;" vertex="1" parent="1">
          <mxGeometry x="150" y="300" width="60" height="20" as="geometry" />
        </mxCell>
        <mxCell id="NeJHOYMAFxxggkwu5jM7-24" value="Eureka" style="rounded=0;whiteSpace=wrap;html=1;" vertex="1" parent="1">
          <mxGeometry x="120" y="335" width="120" height="60" as="geometry" />
        </mxCell>
        <mxCell id="NeJHOYMAFxxggkwu5jM7-25" value="Seata" style="rounded=0;whiteSpace=wrap;html=1;" vertex="1" parent="1">
          <mxGeometry x="560" y="340" width="120" height="60" as="geometry" />
        </mxCell>
        <mxCell id="NeJHOYMAFxxggkwu5jM7-26" value="XXL-JOB" style="rounded=0;whiteSpace=wrap;html=1;dashed=1;fillColor=#fad7ac;strokeColor=#b46504;" vertex="1" parent="1">
          <mxGeometry x="260" y="500" width="130" height="60" as="geometry" />
        </mxCell>
        <mxCell id="NeJHOYMAFxxggkwu5jM7-27" value="Spring Boot Admin" style="rounded=0;whiteSpace=wrap;html=1;dashed=1;fillColor=#fad7ac;strokeColor=#b46504;" vertex="1" parent="1">
          <mxGeometry x="410" y="500" width="130" height="60" as="geometry" />
        </mxCell>
        <mxCell id="NeJHOYMAFxxggkwu5jM7-28" value="数据层" style="text;html=1;align=center;verticalAlign=middle;resizable=0;points=[];autosize=1;strokeColor=none;" vertex="1" parent="1">
          <mxGeometry x="364" y="590" width="50" height="20" as="geometry" />
        </mxCell>
        <mxCell id="NeJHOYMAFxxggkwu5jM7-29" value="微信公众号" style="rounded=1;whiteSpace=wrap;html=1;dashed=1;" vertex="1" parent="1">
          <mxGeometry x="364" y="150" width="120" height="35" as="geometry" />
        </mxCell>
        <mxCell id="NeJHOYMAFxxggkwu5jM7-30" value="PC、H5 （Vue、Element UI）" style="rounded=1;whiteSpace=wrap;html=1;dashed=1;" vertex="1" parent="1">
          <mxGeometry x="120" y="150" width="210" height="35" as="geometry" />
        </mxCell>
        <mxCell id="NeJHOYMAFxxggkwu5jM7-31" value="地址路由" style="rounded=1;whiteSpace=wrap;html=1;dashed=1;" vertex="1" parent="1">
          <mxGeometry x="120" y="230" width="120" height="35" as="geometry" />
        </mxCell>
        <mxCell id="NeJHOYMAFxxggkwu5jM7-32" value="&lt;span&gt;网关(Spring Cloud Gateway)&lt;/span&gt;" style="text;html=1;align=center;verticalAlign=middle;resizable=0;points=[];autosize=1;strokeColor=none;" vertex="1" parent="1">
          <mxGeometry x="304" y="205" width="170" height="20" as="geometry" />
        </mxCell>
        <mxCell id="NeJHOYMAFxxggkwu5jM7-33" value="请求过滤" style="rounded=1;whiteSpace=wrap;html=1;dashed=1;" vertex="1" parent="1">
          <mxGeometry x="260" y="230" width="120" height="35" as="geometry" />
        </mxCell>
        <mxCell id="NeJHOYMAFxxggkwu5jM7-34" value="API鉴权" style="rounded=1;whiteSpace=wrap;html=1;dashed=1;" vertex="1" parent="1">
          <mxGeometry x="404" y="230" width="120" height="35" as="geometry" />
        </mxCell>
        <mxCell id="NeJHOYMAFxxggkwu5jM7-35" value="限流/负载均衡" style="rounded=1;whiteSpace=wrap;html=1;dashed=1;" vertex="1" parent="1">
          <mxGeometry x="550" y="230" width="120" height="35" as="geometry" />
        </mxCell>
        <mxCell id="NeJHOYMAFxxggkwu5jM7-36" value="展示层/开放API" style="text;html=1;align=center;verticalAlign=middle;resizable=0;points=[];autosize=1;strokeColor=none;" vertex="1" parent="1">
          <mxGeometry x="350" y="123" width="100" height="20" as="geometry" />
        </mxCell>
        <mxCell id="NeJHOYMAFxxggkwu5jM7-37" value="小程序" style="rounded=1;whiteSpace=wrap;html=1;dashed=1;" vertex="1" parent="1">
          <mxGeometry x="520" y="150" width="120" height="35" as="geometry" />
        </mxCell>
        <mxCell id="NeJHOYMAFxxggkwu5jM7-38" value="" style="rounded=0;whiteSpace=wrap;html=1;dashed=1;fillColor=#ffe6cc;strokeColor=#d79b00;" vertex="1" parent="1">
          <mxGeometry x="370" y="770" width="140" height="270" as="geometry" />
        </mxCell>
        <mxCell id="NeJHOYMAFxxggkwu5jM7-39" value="Sleuth +&amp;nbsp;Zipkin" style="rounded=0;whiteSpace=wrap;html=1;" vertex="1" parent="1">
          <mxGeometry x="380" y="895" width="120" height="60" as="geometry" />
        </mxCell>
        <mxCell id="NeJHOYMAFxxggkwu5jM7-41" value="监控/链路追踪" style="text;html=1;align=center;verticalAlign=middle;resizable=0;points=[];autosize=1;strokeColor=none;" vertex="1" parent="1">
          <mxGeometry x="395" y="780" width="90" height="20" as="geometry" />
        </mxCell>
        <mxCell id="NeJHOYMAFxxggkwu5jM7-42" value="Skywalking" style="rounded=0;whiteSpace=wrap;html=1;" vertex="1" parent="1">
          <mxGeometry x="380" y="820" width="120" height="60" as="geometry" />
        </mxCell>
        <mxCell id="NeJHOYMAFxxggkwu5jM7-43" value="Spring Boot Admin" style="rounded=0;whiteSpace=wrap;html=1;" vertex="1" parent="1">
          <mxGeometry x="380" y="970" width="120" height="60" as="geometry" />
        </mxCell>
        <mxCell id="NeJHOYMAFxxggkwu5jM7-48" value="" style="rounded=0;whiteSpace=wrap;html=1;dashed=1;fillColor=#ffe6cc;strokeColor=#d79b00;" vertex="1" parent="1">
          <mxGeometry x="590" y="760" width="140" height="270" as="geometry" />
        </mxCell>
        <mxCell id="NeJHOYMAFxxggkwu5jM7-49" value="Sleuth +&amp;nbsp;Zipkin" style="rounded=0;whiteSpace=wrap;html=1;" vertex="1" parent="1">
          <mxGeometry x="600" y="885" width="120" height="60" as="geometry" />
        </mxCell>
        <mxCell id="NeJHOYMAFxxggkwu5jM7-50" value="监控/链路追踪" style="text;html=1;align=center;verticalAlign=middle;resizable=0;points=[];autosize=1;strokeColor=none;" vertex="1" parent="1">
          <mxGeometry x="615" y="770" width="90" height="20" as="geometry" />
        </mxCell>
        <mxCell id="NeJHOYMAFxxggkwu5jM7-51" value="Skywalking" style="rounded=0;whiteSpace=wrap;html=1;" vertex="1" parent="1">
          <mxGeometry x="600" y="810" width="120" height="60" as="geometry" />
        </mxCell>
        <mxCell id="NeJHOYMAFxxggkwu5jM7-52" value="Spring Boot Admin" style="rounded=0;whiteSpace=wrap;html=1;" vertex="1" parent="1">
          <mxGeometry x="600" y="960" width="120" height="60" as="geometry" />
        </mxCell>
        <mxCell id="NeJHOYMAFxxggkwu5jM7-53" value="RcoketMQ" style="outlineConnect=0;fontColor=#232F3E;gradientColor=none;strokeColor=#ffffff;fillColor=#232F3E;dashed=0;verticalLabelPosition=middle;verticalAlign=bottom;align=center;html=1;whiteSpace=wrap;fontSize=10;fontStyle=1;spacing=3;shape=mxgraph.aws4.productIcon;prIcon=mxgraph.aws4.mq;" vertex="1" parent="1">
          <mxGeometry x="150" y="1660" width="80" height="100" as="geometry" />
        </mxCell>
        <mxCell id="NeJHOYMAFxxggkwu5jM7-54" value="RcoketMQ" style="outlineConnect=0;fontColor=#232F3E;gradientColor=none;strokeColor=#ffffff;fillColor=#232F3E;dashed=0;verticalLabelPosition=middle;verticalAlign=bottom;align=center;html=1;whiteSpace=wrap;fontSize=10;fontStyle=1;spacing=3;shape=mxgraph.aws4.productIcon;prIcon=mxgraph.aws4.mq;" vertex="1" parent="1">
          <mxGeometry x="900" y="1654" width="80" height="100" as="geometry" />
        </mxCell>
      </root>
    </mxGraphModel>
  </diagram>
</mxfile>
